{
 "cells": [
  {
   "cell_type": "code",
   "execution_count": 1,
   "metadata": {},
   "outputs": [],
   "source": [
    "\"\"\" A test detector for movement detection\n",
    "in the sealhits data. \"\"\"\n",
    "\n",
    "from __future__ import annotations\n",
    "\n",
    "import numpy as np\n",
    "from sealhits.db.db import DB\n",
    "from sealhits.bbox import XYBox\n",
    "from sealhits.image import get_group_images\n",
    "from sealhits.track import get_bounding_boxes\n",
    "from sealhits.video import gen_video\n",
    "from scipy import signal\n",
    "from tqdm.notebook import trange, tqdm\n",
    "\n",
    "db = DB(\"sealhits\", \"sealhits_ro\", \"9T0J^MpjMrE!\", \"juve.st-andrews.ac.uk\")\n",
    "groups = [\"believe-entire-night-back\", \"remember-past-red-level\", \"mean-legal-hour-month\", \"go-meet-common-company\", \"say-cultural-private-job\", \"stand-recent-result-night\", \"happen-public-full-team\", \"ask-know-general-kid\"]\n",
    "groups = [\"may-general-democratic-word\"]"
   ]
  },
  {
   "cell_type": "code",
   "execution_count": null,
   "metadata": {},
   "outputs": [],
   "source": []
  },
  {
   "cell_type": "code",
   "execution_count": 2,
   "metadata": {},
   "outputs": [
    {
     "name": "stderr",
     "output_type": "stream",
     "text": [
      "[rawvideo @ 0x564ef8497d40] Stream #0: not enough frames to estimate rate; consider increasing probesize\n",
      "Input #0, rawvideo, from 'fd:':\n",
      "  Duration: N/A, start: 0.000000, bitrate: 81444 kb/s\n",
      "  Stream #0:0: Video: rawvideo (RGB[24] / 0x18424752), rgb24, 512x1657, 81444 kb/s, 4 tbr, 4 tbn\n",
      "Stream mapping:\n",
      "  Stream #0:0 -> #0:0 (rawvideo (native) -> h264 (libx264))\n",
      "[libx264 @ 0x564ef84ab4c0] using cpu capabilities: MMX2 SSE2Fast SSSE3 SSE4.2 AVX FMA3 BMI2 AVX2\n",
      "[libx264 @ 0x564ef84ab4c0] profile High 4:4:4 Predictive, level 3.1, 4:4:4, 8-bit\n",
      "[libx264 @ 0x564ef84ab4c0] 264 - core 164 r3108 31e19f9 - H.264/MPEG-4 AVC codec - Copyleft 2003-2023 - http://www.videolan.org/x264.html - options: cabac=1 ref=3 deblock=1:0:0 analyse=0x3:0x113 me=hex subme=7 psy=1 psy_rd=1.00:0.00 mixed_ref=1 me_range=16 chroma_me=1 trellis=1 8x8dct=1 cqm=0 deadzone=21,11 fast_pskip=1 chroma_qp_offset=4 threads=36 lookahead_threads=6 sliced_threads=0 nr=0 decimate=1 interlaced=0 bluray_compat=0 constrained_intra=0 bframes=3 b_pyramid=2 b_adapt=1 b_bias=0 direct=1 weightb=1 open_gop=0 weightp=2 keyint=250 keyint_min=4 scenecut=40 intra_refresh=0 rc_lookahead=40 rc=crf mbtree=1 crf=23.0 qcomp=0.60 qpmin=0 qpmax=69 qpstep=4 ip_ratio=1.40 aq=1:1.00\n",
      "Output #0, mp4, to '/home/oni/tmp/may-general-democratic-word.mp4':\n",
      "  Metadata:\n",
      "    encoder         : Lavf60.16.100\n",
      "  Stream #0:0: Video: h264 (avc1 / 0x31637661), yuv444p(tv, progressive), 512x1657, q=2-31, 4 fps, 16384 tbn\n",
      "    Metadata:\n",
      "      encoder         : Lavc60.31.102 libx264\n",
      "    Side data:\n",
      "      cpb: bitrate max/min/avg: 0/0/0 buffer size: 0 vbv_delay: N/A\n",
      "[out#0/mp4 @ 0x564ef84a9c00] video:3907kB audio:0kB subtitle:0kB other streams:0kB global headers:0kB muxing overhead: 0.039788%\n",
      "frame=   59 fps=0.0 q=-1.0 Lsize=    3909kB time=00:00:14.00 bitrate=2287.3kbits/s speed=16.2x    \n",
      "[libx264 @ 0x564ef84ab4c0] frame I:1     Avg QP:17.22  size:149507\n",
      "[libx264 @ 0x564ef84ab4c0] frame P:15    Avg QP:17.81  size: 84113\n",
      "[libx264 @ 0x564ef84ab4c0] frame B:43    Avg QP:20.04  size: 60217\n",
      "[libx264 @ 0x564ef84ab4c0] consecutive B-frames:  1.7%  3.4%  0.0% 94.9%\n",
      "[libx264 @ 0x564ef84ab4c0] mb I  I16..4:  3.8% 68.4% 27.7%\n",
      "[libx264 @ 0x564ef84ab4c0] mb P  I16..4:  0.0% 14.5%  2.8%  P16..4: 22.6% 27.7% 21.0%  0.0%  0.0%    skip:11.3%\n",
      "[libx264 @ 0x564ef84ab4c0] mb B  I16..4:  0.0% 12.5%  2.7%  B16..8: 23.3% 13.5%  9.9%  direct:11.7%  skip:26.4%  L0:40.2% L1:39.6% BI:20.2%\n",
      "[libx264 @ 0x564ef84ab4c0] 8x8 transform intra:81.4% inter:63.0%\n",
      "[libx264 @ 0x564ef84ab4c0] coded y,u,v intra: 99.0% 75.4% 45.5% inter: 58.1% 18.6% 9.3%\n",
      "[libx264 @ 0x564ef84ab4c0] i16 v,h,dc,p: 39% 24% 27% 10%\n",
      "[libx264 @ 0x564ef84ab4c0] i8 v,h,dc,ddl,ddr,vr,hd,vl,hu:  3% 30% 22%  3%  4%  2% 14%  3% 19%\n",
      "[libx264 @ 0x564ef84ab4c0] i4 v,h,dc,ddl,ddr,vr,hd,vl,hu:  4% 38% 11%  4%  5%  2% 15%  3% 18%\n",
      "[libx264 @ 0x564ef84ab4c0] Weighted P-Frames: Y:0.0% UV:0.0%\n",
      "[libx264 @ 0x564ef84ab4c0] ref P L0: 41.9%  9.6% 30.5% 18.1%\n",
      "[libx264 @ 0x564ef84ab4c0] ref B L0: 67.2% 24.9%  7.9%\n",
      "[libx264 @ 0x564ef84ab4c0] ref B L1: 86.1% 13.9%\n",
      "[libx264 @ 0x564ef84ab4c0] kb/s:2169.77\n"
     ]
    }
   ],
   "source": [
    "def get_group_data(db, group_names):\n",
    "    \"\"\" Get the data for all groups together, generate the initial images.\"\"\"\n",
    "    gdata = []\n",
    "    og_bbs = []\n",
    "\n",
    "    for group_name in group_names:\n",
    "        group = db.get_group_huid(group_name)\n",
    "        gimg_data, gimages = get_group_images(db, \"/home/oni/work/fits\", group_name, sonarid=854, fan_transform=False)\n",
    "        bbs = get_bounding_boxes(db, group_name, gimages, (gimg_data.shape[2], gimg_data.shape[1]), fan_distort=False)\n",
    "        gid = group.gid\n",
    "        huid = group.huid\n",
    "        time_start = group.timestart\n",
    "        time_end = group.timeend\n",
    "        gcode = group.code\n",
    "        comment = group.comment\n",
    "        video_path = gen_video(gimg_data, bbs, gid, huid, time_start, time_end, gcode, comment, \"/home/oni/tmp\", \"mp4\", group_name)\n",
    "        gdata.append(gimg_data)\n",
    "        og_bbs.append(bbs)\n",
    "\n",
    "    return gdata, og_bbs\n",
    "\n",
    "gdata, og_bbs = get_group_data(db, groups)"
   ]
  },
  {
   "cell_type": "code",
   "execution_count": 3,
   "metadata": {},
   "outputs": [
    {
     "name": "stderr",
     "output_type": "stream",
     "text": [
      "Input #0, rawvideo, from 'fd:':\n",
      "  Duration: N/A, start: 0.000000, bitrate: 20348 kb/s\n",
      "  Stream #0:0: Video: rawvideo (RGB[24] / 0x18424752), rgb24, 256x828, 20348 kb/s, 4 fps, 4 tbr, 4 tbn\n",
      "Stream mapping:\n",
      "  Stream #0:0 -> #0:0 (rawvideo (native) -> h264 (libx264))\n",
      "[libx264 @ 0x55a3b4d76480] using cpu capabilities: MMX2 SSE2Fast SSSE3 SSE4.2 AVX FMA3 BMI2 AVX2\n",
      "[libx264 @ 0x55a3b4d76480] profile High 4:4:4 Predictive, level 2.2, 4:4:4, 8-bit\n",
      "[libx264 @ 0x55a3b4d76480] 264 - core 164 r3108 31e19f9 - H.264/MPEG-4 AVC codec - Copyleft 2003-2023 - http://www.videolan.org/x264.html - options: cabac=1 ref=3 deblock=1:0:0 analyse=0x3:0x113 me=hex subme=7 psy=1 psy_rd=1.00:0.00 mixed_ref=1 me_range=16 chroma_me=1 trellis=1 8x8dct=1 cqm=0 deadzone=21,11 fast_pskip=1 chroma_qp_offset=4 threads=26 lookahead_threads=4 sliced_threads=0 nr=0 decimate=1 interlaced=0 bluray_compat=0 constrained_intra=0 bframes=3 b_pyramid=2 b_adapt=1 b_bias=0 direct=1 weightb=1 open_gop=0 weightp=2 keyint=250 keyint_min=4 scenecut=40 intra_refresh=0 rc_lookahead=40 rc=crf mbtree=1 crf=23.0 qcomp=0.60 qpmin=0 qpmax=69 qpstep=4 ip_ratio=1.40 aq=1:1.00\n",
      "Output #0, mp4, to '/home/oni/tmp/may-general-democratic-word_q_1.mp4':\n",
      "  Metadata:\n",
      "    encoder         : Lavf60.16.100\n",
      "  Stream #0:0: Video: h264 (avc1 / 0x31637661), yuv444p(tv, progressive), 256x828, q=2-31, 4 fps, 16384 tbn\n",
      "    Metadata:\n",
      "      encoder         : Lavc60.31.102 libx264\n",
      "    Side data:\n",
      "      cpb: bitrate max/min/avg: 0/0/0 buffer size: 0 vbv_delay: N/A\n",
      "[out#0/mp4 @ 0x55a3b4d74c00] video:8kB audio:0kB subtitle:0kB other streams:0kB global headers:0kB muxing overhead: 15.846297%\n",
      "frame=   42 fps=0.0 q=-1.0 Lsize=      10kB time=00:00:09.75 bitrate=   8.2kbits/s speed=69.7x    \n",
      "[libx264 @ 0x55a3b4d76480] frame I:1     Avg QP:11.70  size:   197\n",
      "[libx264 @ 0x55a3b4d76480] frame P:11    Avg QP:12.37  size:   212\n",
      "[libx264 @ 0x55a3b4d76480] frame B:30    Avg QP:13.80  size:   180\n",
      "[libx264 @ 0x55a3b4d76480] consecutive B-frames:  4.8%  0.0%  0.0% 95.2%\n",
      "[libx264 @ 0x55a3b4d76480] mb I  I16..4:  1.2% 98.8%  0.0%\n",
      "[libx264 @ 0x55a3b4d76480] mb P  I16..4:  0.4% 13.5%  0.3%  P16..4:  5.7%  0.0%  0.0%  0.0%  0.0%    skip:80.0%\n",
      "[libx264 @ 0x55a3b4d76480] mb B  I16..4:  0.1%  0.0%  0.1%  B16..8:  2.2%  0.1%  0.0%  direct: 0.7%  skip:96.8%  L0:53.9% L1:44.7% BI: 1.3%\n",
      "[libx264 @ 0x55a3b4d76480] 8x8 transform intra:95.4% inter:1.7%\n",
      "[libx264 @ 0x55a3b4d76480] coded y,u,v intra: 1.8% 0.6% 0.4% inter: 0.3% 0.1% 0.0%\n",
      "[libx264 @ 0x55a3b4d76480] i16 v,h,dc,p: 93%  3%  3%  0%\n",
      "[libx264 @ 0x55a3b4d76480] i8 v,h,dc,ddl,ddr,vr,hd,vl,hu:  7% 12% 81%  0%  0%  0%  0%  0%  0%\n",
      "[libx264 @ 0x55a3b4d76480] i4 v,h,dc,ddl,ddr,vr,hd,vl,hu: 14% 15% 58%  2%  2%  1%  3%  2%  3%\n",
      "[libx264 @ 0x55a3b4d76480] Weighted P-Frames: Y:54.5% UV:45.5%\n",
      "[libx264 @ 0x55a3b4d76480] ref P L0:  9.1%  0.0% 89.1%  1.1%  0.8%\n",
      "[libx264 @ 0x55a3b4d76480] ref B L0: 91.6%  6.6%  1.8%\n",
      "[libx264 @ 0x55a3b4d76480] ref B L1: 97.5%  2.5%\n",
      "[libx264 @ 0x55a3b4d76480] kb/s:6.04\n"
     ]
    },
    {
     "name": "stdout",
     "output_type": "stream",
     "text": [
      "Len frames / backs / label_vol 59 42 42\n",
      "Num bboxes 84\n",
      "Num. Final bbs 13\n"
     ]
    },
    {
     "name": "stderr",
     "output_type": "stream",
     "text": [
      "Input #0, rawvideo, from 'fd:':\n",
      "  Duration: N/A, start: 0.000000, bitrate: 20348 kb/s\n",
      "  Stream #0:0: Video: rawvideo (RGB[24] / 0x18424752), rgb24, 256x828, 20348 kb/s, 4 fps, 4 tbr, 4 tbn\n",
      "Stream mapping:\n",
      "  Stream #0:0 -> #0:0 (rawvideo (native) -> h264 (libx264))\n",
      "[libx264 @ 0x561ed738f480] using cpu capabilities: MMX2 SSE2Fast SSSE3 SSE4.2 AVX FMA3 BMI2 AVX2\n",
      "[libx264 @ 0x561ed738f480] profile High 4:4:4 Predictive, level 2.2, 4:4:4, 8-bit\n",
      "[libx264 @ 0x561ed738f480] 264 - core 164 r3108 31e19f9 - H.264/MPEG-4 AVC codec - Copyleft 2003-2023 - http://www.videolan.org/x264.html - options: cabac=1 ref=3 deblock=1:0:0 analyse=0x3:0x113 me=hex subme=7 psy=1 psy_rd=1.00:0.00 mixed_ref=1 me_range=16 chroma_me=1 trellis=1 8x8dct=1 cqm=0 deadzone=21,11 fast_pskip=1 chroma_qp_offset=4 threads=26 lookahead_threads=4 sliced_threads=0 nr=0 decimate=1 interlaced=0 bluray_compat=0 constrained_intra=0 bframes=3 b_pyramid=2 b_adapt=1 b_bias=0 direct=1 weightb=1 open_gop=0 weightp=2 keyint=250 keyint_min=4 scenecut=40 intra_refresh=0 rc_lookahead=40 rc=crf mbtree=1 crf=23.0 qcomp=0.60 qpmin=0 qpmax=69 qpstep=4 ip_ratio=1.40 aq=1:1.00\n",
      "Output #0, mp4, to '/home/oni/tmp/may-general-democratic-word_q_2.mp4':\n",
      "  Metadata:\n",
      "    encoder         : Lavf60.16.100\n",
      "  Stream #0:0: Video: h264 (avc1 / 0x31637661), yuv444p(tv, progressive), 256x828, q=2-31, 4 fps, 16384 tbn\n",
      "    Metadata:\n",
      "      encoder         : Lavc60.31.102 libx264\n",
      "    Side data:\n",
      "      cpb: bitrate max/min/avg: 0/0/0 buffer size: 0 vbv_delay: N/A\n",
      "[out#0/mp4 @ 0x561ed738dc00] video:5kB audio:0kB subtitle:0kB other streams:0kB global headers:0kB muxing overhead: 23.976399%\n",
      "frame=   42 fps=0.0 q=-1.0 Lsize=       7kB time=00:00:09.75 bitrate=   5.7kbits/s speed=85.9x    \n",
      "[libx264 @ 0x561ed738f480] frame I:1     Avg QP:11.97  size:   158\n",
      "[libx264 @ 0x561ed738f480] frame P:12    Avg QP:12.14  size:   154\n",
      "[libx264 @ 0x561ed738f480] frame B:29    Avg QP:15.73  size:   100\n",
      "[libx264 @ 0x561ed738f480] consecutive B-frames:  2.4%  9.5% 21.4% 66.7%\n",
      "[libx264 @ 0x561ed738f480] mb I  I16..4:  0.1% 99.6%  0.2%\n",
      "[libx264 @ 0x561ed738f480] mb P  I16..4:  0.2%  0.2%  0.3%  P16..4:  0.2%  0.1%  0.0%  0.0%  0.0%    skip:99.1%\n",
      "[libx264 @ 0x561ed738f480] mb B  I16..4:  0.0%  0.0%  0.1%  B16..8:  0.8%  0.1%  0.0%  direct: 0.1%  skip:99.0%  L0:49.1% L1:49.1% BI: 1.8%\n",
      "[libx264 @ 0x561ed738f480] 8x8 transform intra:93.3% inter:2.4%\n",
      "[libx264 @ 0x561ed738f480] coded y,u,v intra: 1.6% 1.0% 1.4% inter: 0.1% 0.0% 0.0%\n",
      "[libx264 @ 0x561ed738f480] i16 v,h,dc,p: 86% 10%  5%  0%\n",
      "[libx264 @ 0x561ed738f480] i8 v,h,dc,ddl,ddr,vr,hd,vl,hu:  2% 26% 72%  0%  0%  0%  0%  0%  0%\n",
      "[libx264 @ 0x561ed738f480] i4 v,h,dc,ddl,ddr,vr,hd,vl,hu: 26% 16% 53%  1%  2%  0%  1%  1%  1%\n",
      "[libx264 @ 0x561ed738f480] Weighted P-Frames: Y:8.3% UV:8.3%\n",
      "[libx264 @ 0x561ed738f480] ref P L0: 61.6%  1.8% 24.1% 12.5%\n",
      "[libx264 @ 0x561ed738f480] ref B L0: 95.5%  4.0%  0.4%\n",
      "[libx264 @ 0x561ed738f480] ref B L1: 94.2%  5.8%\n",
      "[libx264 @ 0x561ed738f480] kb/s:3.74\n"
     ]
    }
   ],
   "source": [
    "from PIL import Image\n",
    "from sealhits.bbox import XYZBox, bb_expand, combine_xyzbox\n",
    "\n",
    "\n",
    "def resize_frames(img_data, img_size):\n",
    "    \"\"\" Resize the frames - img_size is width height.\"\"\"\n",
    "    new_frames = np.zeros((img_data.shape[0], img_size[1], img_size[0]))\n",
    "    \n",
    "    for fidx in range(len(img_data)):\n",
    "        pil_img = Image.fromarray(img_data[fidx].astype(\"uint8\"))\n",
    "        pil_img = pil_img.resize(img_size, Image.Resampling.BICUBIC) # BICUBIC beats NEAREST quite a bit!\n",
    "        new_np = np.array(pil_img)\n",
    "        new_frames[fidx] = new_np\n",
    " \n",
    "    return np.array(new_frames)\n",
    "\n",
    "def background_sub(img_data, background_frames):\n",
    "    new_frames = []\n",
    "    start_gap = len(img_data) - len(background_frames)\n",
    "\n",
    "    for fidx, frame in enumerate(img_data):\n",
    "        bi = fidx - start_gap\n",
    "        \n",
    "        if bi < 0:\n",
    "            bi = 0\n",
    "            \n",
    "        background = background_frames[bi]  * 2.0 # This multiplication is really necessary and it's annoying! Not sure why we need it :S\n",
    "        tframe = frame.astype(float)\n",
    "        subbed = (tframe - background) * 2.0 # As is this one but then the sub does reduce the top end.\n",
    "        subbed = np.maximum(subbed, 0) # Clipping seems to work better, but only on the stuff that's already down to 0\n",
    "        subbed  = subbed / np.max(subbed) * 255.0\n",
    "        new_frames.append(subbed)\n",
    "        \n",
    "    new_frames = np.array(new_frames)\n",
    "    return new_frames\n",
    "\n",
    "def filter_for_background(np_img_data, btype=\"lowpass\", freq=0.1):\n",
    "    num_back_frames = 16 # More seems better :/\n",
    "    background_frames = []\n",
    "    bi = 0\n",
    "    \n",
    "    while bi + num_back_frames < len(np_img_data) -1:\n",
    "        low_frames = np_img_data[bi:bi+num_back_frames]\n",
    "        low_frames = low_frames.astype(float)\n",
    "        b, a = signal.butter(5, freq, btype=btype)\n",
    "        # zi = signal.lfilter_zi(b, a)\n",
    "        z = signal.lfilter(b, a, low_frames, axis=0)\n",
    "        background_frames.append(np.clip(z[-1], 0.0, 255.0))\n",
    "        bi+=1\n",
    "\n",
    "    return np.array(background_frames)\n",
    "\n",
    "\n",
    "def otsu_bbox(np_frames):\n",
    "    from skimage.filters import threshold_otsu\n",
    "    from skimage.measure import label, regionprops\n",
    "    from skimage.morphology import closing, cube\n",
    "\n",
    "    # Do closing over time and space\n",
    "    # Performing Otsu over the entire volume might be a problem with occasional\n",
    "    # bright frames. Local otsu over tiles/voxels might be better too.\n",
    "    binary = []\n",
    "    frame_size = (np_frames.shape[2], np_frames.shape[1], np_frames.shape[0])\n",
    "    thresh = threshold_otsu(np_frames)\n",
    "    binary = np_frames > thresh\n",
    "\n",
    "    binary = np.array(binary, dtype=np.uint8) # Convert from bool\n",
    "    binary = closing(binary, cube(5)) # Resolution dependent?\n",
    "\n",
    "    # Now label each volume with label and max connectivity\n",
    "    new_bbs = []\n",
    "    labelled = label(np_frames, connectivity=3)\n",
    "    regions = regionprops(labelled)\n",
    "\n",
    "    for region in regions:\n",
    "        bbox = region['bbox']\n",
    "        nbb = XYZBox(bbox[2], bbox[1], bbox[0], bbox[5], bbox[4], bbox[3])\n",
    "        nbb = bb_expand(nbb, frame_size, (8, 8, 1)) # TODO - How to choose expansion sizes? Maybe something smarter? Biggest gaps perhaps?\n",
    "        new_bbs.append(nbb)\n",
    "\n",
    "    # We don't keep small boxes as the combine step will take forever otherwise.\n",
    "    # TODO - 5 x 5 x 5 equiv. We need to set this statistically. This is easier in fan images\n",
    "    # as spatially, things are more correct in the fans than in the RAW images.\n",
    "    # Keep the top nFrames * 2 boxes. Should be set statistically somehow\n",
    "    # TODO - could also add a cull here on the really small ones\n",
    "    def _volume(b):\n",
    "        return b.volume()\n",
    "\n",
    "    new_bbs.sort(key=_volume, reverse=True)\n",
    "    new_bbs = new_bbs[:len(np_frames) * 2]\n",
    "\n",
    "    return (binary, new_bbs)\n",
    "\n",
    "for gi, gname in enumerate(groups):\n",
    "    g = gdata[gi]\n",
    "    resized = resize_frames(g, (int(g.shape[2] / 2), int(g.shape[1] / 2))) # Work on a smaller image - faster but we may loose detail.\n",
    "    #resized = g\n",
    "    backs_low = filter_for_background(resized, btype=\"bandpass\", freq=[0.3, 0.4]) # Movement is in this range I think. so it seems. But there is still some high freq\n",
    "    _ = gen_video(backs_low, None, \"\", \"\", \"\", \"\", \"\", \"\", \"/home/oni/tmp\", \"mp4\", gname + \"_q_1\")\n",
    "\n",
    "    label_vol, new_bbs = otsu_bbox(backs_low)\n",
    "\n",
    "    print(\"Len frames / backs / label_vol\", len(g), len(backs_low), len(label_vol))\n",
    "    print(\"Num bboxes\", len(new_bbs))\n",
    "\n",
    "    final_bbs = combine_xyzbox(new_bbs)\n",
    "    #final_bbs = new_bbs\n",
    "    img_size = (resized.shape[2], resized.shape[1])\n",
    "\n",
    "    bbs_2D = []\n",
    "    print(\"Num. Final bbs\", len(final_bbs))\n",
    "\n",
    "    for bb in final_bbs:\n",
    "        if bb.z_max - bb.z_min > 4: # minimum of one second once combined\n",
    "            \n",
    "            for z in range(bb.z_min, bb.z_max + 1):\n",
    "                xybox = XYBox(bb.x_min, bb.y_min, bb.x_max, bb.y_max)\n",
    "                bbs_2D.append((z, xybox, \"#00ff00\"))\n",
    "\n",
    "    _ = gen_video(label_vol, bbs_2D, \"\", \"\", \"\", \"\", \"\", \"\", \"/home/oni/tmp\", \"mp4\", gname + \"_q_2\")\n"
   ]
  }
 ],
 "metadata": {
  "kernelspec": {
   "display_name": "venv",
   "language": "python",
   "name": "python3"
  },
  "language_info": {
   "codemirror_mode": {
    "name": "ipython",
    "version": 3
   },
   "file_extension": ".py",
   "mimetype": "text/x-python",
   "name": "python",
   "nbconvert_exporter": "python",
   "pygments_lexer": "ipython3",
   "version": "3.11.6"
  },
  "orig_nbformat": 4
 },
 "nbformat": 4,
 "nbformat_minor": 2
}
